<svg xmlns="http://www.w3.org/2000/svg" width="24" height="24" viewBox="0 0 24 24">
  <mask id="cutMask">
    <path
      fill="none"
      stroke="white"
      stroke-linecap="round"
      stroke-linejoin="round"
      stroke-width="1.5"
      d="m9.172 14.829l5.657-5.657M7.05 11.293l-1.414 1.414a4 4 0 1 0 5.657 5.657l1.412-1.414m-1.413-9.9l1.414-1.414a4 4 0 1 1 5.657 5.657l-1.414 1.414"
    />
    <circle cx="18" cy="18" r="7" fill="black" />
  </mask>

  <g mask="url(#cutMask)">
    <rect width="24" height="24" fill="currentColor" />
  </g>

  <path
    fill="currentColor"
    fill-rule="evenodd"
    d="M17.5 23a5.5 5.5 0 1 0 0-11a5.5 5.5 0 0 0 0 11m0-8.993a.5.5 0 0 1 .5.5V17h2.493a.5.5 0 1 1 0 1H18v2.493a.5.5 0 1 1-1 0V18h-2.493a.5.5 0 1 1 0-1H17v-2.493a.5.5 0 0 1 .5-.5"
    clip-rule="evenodd"
  />
</svg>
