<?xml version="1.0" standalone="no"?>
<!DOCTYPE svg PUBLIC "-//W3C//DTD SVG 20010904//EN"
 "http://www.w3.org/TR/2001/REC-SVG-20010904/DTD/svg10.dtd">
<svg version="1.0" xmlns="http://www.w3.org/2000/svg"
 width="512.000000pt" height="512.000000pt" viewBox="0 0 512.000000 512.000000"
 preserveAspectRatio="xMidYMid meet">
<metadata>
Created by potrace 1.14, written by Peter Selinger 2001-2017
</metadata>
<g transform="translate(0.000000,512.000000) scale(0.100000,-0.100000)"
fill="#000000" stroke="none">
<path d="M768 4955 c-2 -2 -36 -6 -77 -9 -41 -4 -77 -9 -81 -11 -3 -2 -17 -6
-31 -8 -83 -16 -207 -97 -279 -184 -70 -84 -98 -149 -126 -293 -10 -55 -13
-897 -3 -970 5 -36 12 -82 15 -104 27 -186 198 -370 391 -421 95 -25 189 -30
613 -30 395 0 501 4 568 24 17 5 32 8 32 5 0 -2 25 7 55 20 145 65 257 182
306 322 19 54 22 66 38 184 9 67 8 884 -2 955 -21 155 -70 257 -171 355 -99
96 -202 139 -381 159 -70 8 -859 13 -867 6z"/>
<path d="M3529 4956 c-2 -2 -35 -7 -74 -10 -64 -6 -203 -42 -215 -55 -3 -3
-16 -12 -30 -20 -135 -74 -236 -218 -267 -382 -26 -136 -25 -981 2 -1114 28
-139 109 -260 233 -346 45 -32 118 -67 155 -75 120 -26 236 -31 647 -29 239 2
448 6 463 8 163 30 251 73 350 173 95 96 135 193 157 379 9 80 6 914 -4 960
-37 174 -71 244 -160 335 -81 82 -188 140 -286 155 -20 3 -47 8 -60 12 -26 6
-905 15 -911 9z"/>
<path d="M690 2184 c-139 -18 -219 -48 -300 -112 -87 -69 -180 -202 -195 -282
-3 -14 -8 -41 -11 -60 -4 -19 -9 -44 -12 -55 -3 -11 -6 -216 -8 -455 -2 -441
3 -538 36 -660 12 -46 62 -143 85 -167 8 -7 22 -23 32 -36 26 -32 111 -99 159
-125 110 -58 201 -67 704 -67 511 0 571 6 695 65 135 65 271 226 291 347 2 16
7 34 9 42 15 40 20 188 20 556 0 466 -4 526 -43 651 -32 101 -116 203 -225
275 -75 48 -127 66 -257 86 -78 12 -885 10 -980 -3z"/>
<path d="M3539 2196 c-2 -2 -31 -6 -64 -9 -162 -15 -258 -54 -360 -144 -36
-32 -102 -117 -123 -159 -26 -52 -52 -150 -60 -234 -9 -87 -9 -868 0 -947 23
-197 97 -329 243 -432 138 -97 205 -106 770 -106 459 0 528 5 643 45 174 61
318 234 347 415 19 117 23 220 20 600 -1 237 -6 446 -9 465 -25 124 -67 229
-110 276 -119 131 -204 184 -331 208 -16 3 -43 9 -60 12 -32 7 -899 16 -906
10z m464 -490 c57 -23 69 -54 72 -181 3 -187 21 -206 205 -210 93 -2 123 -7
145 -21 51 -33 71 -124 41 -183 -28 -53 -58 -63 -188 -66 -181 -4 -200 -23
-203 -204 -2 -104 -5 -123 -24 -149 -58 -82 -215 -61 -237 32 -5 17 -8 74 -9
126 -1 169 -25 192 -205 195 -94 2 -122 6 -145 21 -72 47 -72 181 0 228 23 15
52 19 146 21 183 5 201 23 204 210 2 122 9 142 62 176 33 22 91 24 136 5z"/>
</g>
</svg>
